<?xml version="1.0" standalone="no"?>
<!DOCTYPE svg PUBLIC "-//W3C//DTD SVG 20010904//EN"
 "http://www.w3.org/TR/2001/REC-SVG-20010904/DTD/svg10.dtd">
<svg version="1.0" xmlns="http://www.w3.org/2000/svg"
 width="430.000000pt" height="121.000000pt" viewBox="0 0 430.000000 121.000000"
 preserveAspectRatio="xMidYMid meet">
<metadata>
Created by potrace 1.16, written by Peter Selinger 2001-2019
</metadata>
<g transform="translate(0.000000,121.000000) scale(0.100000,-0.100000)"
fill="#000000" stroke="none">
<path d="M325 1171 c-68 -32 -137 -101 -166 -165 -16 -36 -122 -701 -146 -913
l-6 -53 140 0 141 0 7 46 7 46 42 -45 c52 -54 115 -73 213 -64 235 22 404 260
391 550 -5 109 -29 167 -94 227 -103 95 -300 91 -406 -7 -14 -14 -30 -24 -35
-22 -8 3 4 93 51 397 5 32 4 32 -37 32 -25 0 -66 -11 -102 -29z m289 -526 c36
-33 46 -65 46 -140 0 -75 -28 -173 -63 -219 -47 -60 -127 -82 -187 -51 -60 31
-81 117 -56 235 28 133 90 200 187 200 35 0 52 -6 73 -25z"/>
<path d="M1261 1173 c-62 -30 -118 -83 -154 -144 -26 -46 -23 -29 -118 -674
-21 -148 -41 -280 -44 -293 l-5 -22 145 0 c107 0 147 3 150 12 5 13 90 575
139 923 15 99 28 190 31 203 5 20 2 22 -42 22 -31 -1 -68 -10 -102 -27z"/>
<path d="M4143 1169 c-60 -29 -130 -94 -158 -149 -7 -14 -20 -74 -29 -134 -9
-61 -19 -112 -21 -115 -3 -2 -22 12 -43 32 -49 47 -98 67 -170 67 -257 0 -439
-236 -419 -546 8 -136 66 -232 167 -278 35 -16 65 -20 135 -20 100 0 149 18
214 78 l33 31 -5 -48 -5 -48 141 3 141 3 23 155 c13 85 50 337 83 560 33 223
60 413 60 423 0 28 -74 22 -147 -14z m-286 -520 c31 -26 46 -73 45 -140 -3
-125 -27 -195 -86 -247 -42 -37 -94 -49 -144 -33 -57 17 -76 52 -81 143 -7
154 56 276 152 296 44 9 89 1 114 -19z"/>
<path d="M1735 862 c-98 -29 -156 -63 -226 -132 -105 -103 -153 -220 -152
-370 0 -226 146 -350 407 -350 331 1 562 230 543 538 -9 153 -79 250 -215 303
-80 31 -271 37 -357 11z m205 -190 c77 -38 96 -152 51 -301 -43 -141 -157
-207 -267 -155 -57 27 -77 79 -72 188 5 104 32 179 87 233 52 52 137 67 201
35z"/>
<path d="M2902 854 c-77 -20 -101 -35 -166 -104 l-58 -61 7 58 c3 32 9 69 12
82 6 23 4 23 -33 17 -103 -19 -220 -107 -257 -193 -12 -29 -97 -555 -97 -603
0 -6 59 -10 144 -10 l144 0 6 33 c3 17 19 123 35 234 32 216 43 254 85 293 22
20 40 25 96 28 66 4 71 3 100 -26 39 -39 39 -63 -4 -340 -17 -117 -30 -215
-27 -217 2 -3 67 -5 143 -5 102 0 140 3 143 13 3 6 23 138 46 292 43 298 45
345 10 413 -48 94 -188 134 -329 96z"/>
</g>
</svg>
